HIERARCHY
ROOT Hips
{
    OFFSET   0.000000   0.000000   0.000000
    CHANNELS 6 Xposition Yposition Zposition Zrotation Xrotation Yrotation
    JOINT Chest
    {
        OFFSET   0.000000   8.007230   0.000000
        CHANNELS 3 Zrotation Xrotation Yrotation
        JOINT Chest2
        {
            OFFSET   0.000000  22.077100   0.000000
            CHANNELS 3 Zrotation Xrotation Yrotation
            JOINT Neck
            {
                OFFSET   0.000000  23.255100   0.000000
                CHANNELS 3 Zrotation Xrotation Yrotation
                JOINT Head
                {
                    OFFSET   0.000000  14.370100   1.956600
                    CHANNELS 3 Zrotation Xrotation Yrotation
                    End Site
                    {
                        OFFSET   0.000000  19.566000   0.000000
                    }
                }
            }
            JOINT LeftCollar
            {
                OFFSET   3.911900  19.017000  -0.467063
                CHANNELS 3 Zrotation Xrotation Yrotation
                JOINT LeftShoulder
                {
                    OFFSET  10.383700   0.000000   0.000000
                    CHANNELS 3 Zrotation Xrotation Yrotation
                    JOINT LeftElbow
                    {
                        OFFSET  26.662100   0.001193   0.000980
                        CHANNELS 3 Zrotation Xrotation Yrotation
                        JOINT LeftWrist
                        {
                            OFFSET  28.869000  -0.000059  -0.000082
                            CHANNELS 3 Zrotation Xrotation Yrotation
                            JOINT LeftFinger0
                            {
                                OFFSET   2.044650  -2.323450   3.252850
                                CHANNELS 3 Zrotation Xrotation Yrotation
                                JOINT LeftFinger01
                                {
                                    OFFSET   3.088130   0.000000   0.000000
                                    CHANNELS 3 Zrotation Xrotation Yrotation
                                    JOINT LeftFinger02
                                    {
                                        OFFSET   2.639460   0.000000   0.000000
                                        CHANNELS 3 Zrotation Xrotation Yrotation
                                        End Site
                                        {
                                            OFFSET   2.582190   0.000000   0.000000
                                        }
                                    }
                                }
                            }
                            JOINT LeftFinger1
                            {
                                OFFSET   8.364480   0.000000   3.252850
                                CHANNELS 3 Zrotation Xrotation Yrotation
                                JOINT LeftFinger11
                                {
                                    OFFSET   4.646930   0.000000   0.000000
                                    CHANNELS 3 Zrotation Xrotation Yrotation
                                    JOINT LeftFinger12
                                    {
                                        OFFSET   2.323470   0.000000   0.000000
                                        CHANNELS 3 Zrotation Xrotation Yrotation
                                        End Site
                                        {
                                            OFFSET   2.273050   0.000000   0.000000
                                        }
                                    }
                                }
                            }
                            JOINT LeftFinger2
                            {
                                OFFSET   8.364490   0.000016   1.078090
                                CHANNELS 3 Zrotation Xrotation Yrotation
                                JOINT LeftFinger21
                                {
                                    OFFSET   5.111610   0.000000   0.000000
                                    CHANNELS 3 Zrotation Xrotation Yrotation
                                    JOINT LeftFinger22
                                    {
                                        OFFSET   2.788150   0.000016   0.000000
                                        CHANNELS 3 Zrotation Xrotation Yrotation
                                        End Site
                                        {
                                            OFFSET   2.727660   0.000000   0.000000
                                        }
                                    }
                                }
                            }
                            JOINT LeftFinger3
                            {
                                OFFSET   7.899780   0.000015  -1.078090
                                CHANNELS 3 Zrotation Xrotation Yrotation
                                JOINT LeftFinger31
                                {
                                    OFFSET   4.646930   0.000000   0.000000
                                    CHANNELS 3 Zrotation Xrotation Yrotation
                                    JOINT LeftFinger32
                                    {
                                        OFFSET   2.323470   0.000000   0.000000
                                        CHANNELS 3 Zrotation Xrotation Yrotation
                                        End Site
                                        {
                                            OFFSET   2.273050   0.000000   0.000000
                                        }
                                    }
                                }
                            }
                            JOINT LeftFinger4
                            {
                                OFFSET   7.435090   0.000000  -3.252850
                                CHANNELS 3 Zrotation Xrotation Yrotation
                                JOINT LeftFinger41
                                {
                                    OFFSET   3.717550   0.000000   0.000000
                                    CHANNELS 3 Zrotation Xrotation Yrotation
                                    JOINT LeftFinger42
                                    {
                                        OFFSET   1.858770   0.000000   0.000000
                                        CHANNELS 3 Zrotation Xrotation Yrotation
                                        End Site
                                        {
                                            OFFSET   1.818440   0.000000   0.000000
                                        }
                                    }
                                }
                            }
                        }
                    }
                }
            }
            JOINT RightCollar
            {
                OFFSET  -3.911910  19.017000  -0.467062
                CHANNELS 3 Zrotation Xrotation Yrotation
                JOINT RightShoulder
                {
                    OFFSET -10.383700   0.000014   0.000000
                    CHANNELS 3 Zrotation Xrotation Yrotation
                    JOINT RightElbow
                    {
                        OFFSET -26.662100   0.001225   0.001091
                        CHANNELS 3 Zrotation Xrotation Yrotation
                        JOINT RightWrist
                        {
                            OFFSET -28.869000  -0.000020  -0.000085
                            CHANNELS 3 Zrotation Xrotation Yrotation
                            JOINT RightFinger0
                            {
                                OFFSET  -2.044650  -2.323490   3.252850
                                CHANNELS 3 Zrotation Xrotation Yrotation
                                JOINT RightFinger01
                                {
                                    OFFSET  -3.088130   0.000000   0.000000
                                    CHANNELS 3 Zrotation Xrotation Yrotation
                                    JOINT RightFinger02
                                    {
                                        OFFSET  -2.639460   0.000000   0.000000
                                        CHANNELS 3 Zrotation Xrotation Yrotation
                                        End Site
                                        {
                                            OFFSET  -2.582190   0.000000   0.000000
                                        }
                                    }
                                }
                            }
                            JOINT RightFinger1
                            {
                                OFFSET  -8.364480   0.000000   3.252850
                                CHANNELS 3 Zrotation Xrotation Yrotation
                                JOINT RightFinger11
                                {
                                    OFFSET  -4.646930   0.000000   0.000000
                                    CHANNELS 3 Zrotation Xrotation Yrotation
                                    JOINT RightFinger12
                                    {
                                        OFFSET  -2.323470   0.000000   0.000000
                                        CHANNELS 3 Zrotation Xrotation Yrotation
                                        End Site
                                        {
                                            OFFSET  -2.273050   0.000000   0.000000
                                        }
                                    }
                                }
                            }
                            JOINT RightFinger2
                            {
                                OFFSET  -8.364480   0.000000   1.078090
                                CHANNELS 3 Zrotation Xrotation Yrotation
                                JOINT RightFinger21
                                {
                                    OFFSET  -5.111620   0.000000   0.000000
                                    CHANNELS 3 Zrotation Xrotation Yrotation
                                    JOINT RightFinger22
                                    {
                                        OFFSET  -2.788160   0.000000   0.000000
                                        CHANNELS 3 Zrotation Xrotation Yrotation
                                        End Site
                                        {
                                            OFFSET  -2.727660   0.000000   0.000000
                                        }
                                    }
                                }
                            }
                            JOINT RightFinger3
                            {
                                OFFSET  -7.899780   0.000000  -1.078090
                                CHANNELS 3 Zrotation Xrotation Yrotation
                                JOINT RightFinger31
                                {
                                    OFFSET  -4.646930   0.000000   0.000000
                                    CHANNELS 3 Zrotation Xrotation Yrotation
                                    JOINT RightFinger32
                                    {
                                        OFFSET  -2.323470   0.000000   0.000000
                                        CHANNELS 3 Zrotation Xrotation Yrotation
                                        End Site
                                        {
                                            OFFSET  -2.273050   0.000000   0.000000
                                        }
                                    }
                                }
                            }
                            JOINT RightFinger4
                            {
                                OFFSET  -7.435090   0.000000  -3.252850
                                CHANNELS 3 Zrotation Xrotation Yrotation
                                JOINT RightFinger41
                                {
                                    OFFSET  -3.717550   0.000000   0.000000
                                    CHANNELS 3 Zrotation Xrotation Yrotation
                                    JOINT RightFinger42
                                    {
                                        OFFSET  -1.858760   0.000000   0.000000
                                        CHANNELS 3 Zrotation Xrotation Yrotation
                                        End Site
                                        {
                                            OFFSET  -1.818440   0.000000   0.000000
                                        }
                                    }
                                }
                            }
                        }
                    }
                }
            }
        }
    }
    JOINT LeftHip
    {
        OFFSET   9.783030   0.000000   0.000000
        CHANNELS 3 Zrotation Xrotation Yrotation
        JOINT LeftKnee
        {
            OFFSET   0.000063 -41.789100   0.000608
            CHANNELS 3 Zrotation Xrotation Yrotation
            JOINT LeftAnkle
            {
                OFFSET   0.000048 -41.133200  -0.000184
                CHANNELS 3 Zrotation Xrotation Yrotation
                JOINT LeftToe
                {
                    OFFSET   0.000000  -6.358960  14.674500
                    CHANNELS 3 Zrotation Xrotation Yrotation
                    End Site
                    {
                        OFFSET   0.000000   0.000000   3.913200
                    }
                }
            }
        }
    }
    JOINT RightHip
    {
        OFFSET  -9.783030   0.000000   0.000000
        CHANNELS 3 Zrotation Xrotation Yrotation
        JOINT RightKnee
        {
            OFFSET   0.000071 -41.789100   0.001239
            CHANNELS 3 Zrotation Xrotation Yrotation
            JOINT RightAnkle
            {
                OFFSET   0.000037 -41.133200  -0.000166
                CHANNELS 3 Zrotation Xrotation Yrotation
                JOINT RightToe
                {
                    OFFSET   0.000000  -6.358960  14.674500
                    CHANNELS 3 Zrotation Xrotation Yrotation
                    End Site
                    {
                        OFFSET   0.000000   0.000000   3.913200
                    }
                }
            }
        }
    }
}
MOTION
Frames: 4
Frame Time:   0.016667
 -1.807460  89.681000  -1.587220  -5.582510 -19.218000  -7.948770   1.849830  12.506700  -0.877461   4.051650  24.975100  -2.263900   5.573490   6.571900  -0.639974   9.486610  12.947100   2.528020  -4.590880  -3.791550   2.815390 -65.478200  34.675100 -13.062600  -2.872060  -8.147720 -20.785200  16.523600 -11.162200   6.956790  38.812800  32.843700 -56.785700 -33.618900  -0.000834  -0.000268 -11.809500   0.000348  -0.003015 -33.479300   7.999370 -11.882700 -28.074400   0.008622  -0.000929 -19.652100   0.000488  -0.009832 -28.772000   1.029340  -1.873290 -42.095500   0.002150  -0.001758 -28.035600   0.003438  -0.004490 -28.711300   1.027400  -1.874370 -39.805200   0.000181  -0.001788 -26.510300   0.007368  -0.010607 -33.194100   0.638773  -0.976543 -49.799200   0.000242  -0.000228 -33.166300   0.000670  -0.009810  11.758100  -3.474890  14.777200  46.393100   4.577540  46.673200 -27.588000 -48.021500  83.425500  78.781300 -11.259700  70.241700 -65.593300  40.550600  73.202000   7.810350  -0.007415  -0.018866  -1.094820  -0.003842  -0.009310  11.057100   1.867480   9.547950   6.785330  -0.081927  -0.023736   4.749730  -0.058666  -0.008741   9.016810   0.732688   5.247850   7.195840  -0.075815  -0.025014   4.792410  -0.052136  -0.009978   1.970500  -0.307073  -0.740436   5.038630  -0.038945  -0.033705   3.355750  -0.027453  -0.020349  13.790000  -0.408674  -0.651851  20.251400  -0.160848  -0.111159  13.487600  -0.109519  -0.057109   3.298640  21.208100   4.761600   1.103240   0.093850   9.239820  -2.133590  -2.726720   2.286270   0.000000   0.000000  -0.000000   3.708630  19.094000  -0.628788  -0.474746   2.806790  -8.963940  -0.564476  -3.157710   2.030630  -0.000000   0.000000  -0.000000
 -1.806370  89.656400  -1.569710  -5.573840 -19.185600  -7.931790   1.877220  12.486800  -0.952950   4.129030  24.931700  -2.426510   5.476150   6.575410  -0.627042   9.320220  12.956100   2.697610  -4.641910  -3.768940   2.915280 -65.564000  34.526400 -12.996900  -2.973720  -8.363630 -20.594000  16.404500 -11.393400   7.060400  38.966100  33.121400 -57.124100 -33.593200  -0.000950  -0.000413 -11.796600   0.000332  -0.003006 -33.399000   8.017970 -11.944800 -28.014000   0.008632  -0.000926 -19.609800   0.000481  -0.009829 -28.769400   1.063490  -1.935590 -41.966900   0.002433  -0.001738 -27.949900   0.003403  -0.004502 -28.707900   1.061380  -1.936750 -39.701500   0.000148  -0.001773 -26.441200   0.007381  -0.010597 -33.127400   0.652679  -1.000470 -49.699500   0.000213  -0.000252 -33.099900   0.000640  -0.009852  11.837900  -3.366330  14.874500  46.807900   4.574340  46.700300 -28.173200 -48.051400  83.952200  74.497500 -18.116600  66.010300 -71.310200  42.889700  76.802300   6.329090   0.057664  -0.011559  -1.835440   0.028366   0.030394   3.614340   0.709659   8.879910   2.001090  -0.035723  -0.010253   1.346250  -0.025575  -0.002924   2.363370   0.193709   5.105550   2.112680  -0.032710  -0.013746   1.338370  -0.022522  -0.005052  -7.214420  -0.395106   0.491119   1.298040  -0.019731  -0.018088   0.589896  -0.014139  -0.010913   5.891530  -0.151535   0.977342  10.448400  -0.125964  -0.109271   7.099430  -0.086448  -0.062701   3.320400  21.213300   4.738750   1.083650   0.076218   9.255420  -2.142000  -2.748400   2.263670  -0.000000   0.000000  -0.000000   3.714170  19.092400  -0.609371  -0.464566   2.788700  -8.962710  -0.571530  -3.165240   1.991940  -0.000000   0.000000  -0.000000
 -1.802360  89.630000  -1.558900  -5.578600 -19.169600  -7.928330   1.913860  12.459500  -1.027620   4.218000  24.873400  -2.588220   5.380290   6.599840  -0.620177   9.161630  13.028900   2.878810  -4.693400  -3.725900   3.008040 -65.634700  34.475200 -12.960300  -3.062200  -8.526390 -20.367200  16.274600 -11.475100   7.111650  39.126700  33.401800 -57.485900 -33.562400  -0.001072  -0.000555 -11.781200   0.000315  -0.003004 -33.276200   8.058300 -12.057100 -27.923600   0.008641  -0.000922 -19.546600   0.000474  -0.009826 -28.764900   1.125710  -2.049130 -41.771500   0.002712  -0.001719 -27.819800   0.003369  -0.004515 -28.702200   1.123340  -2.050430 -39.542900   0.000111  -0.001758 -26.335600   0.007400  -0.010585 -33.023100   0.674408  -1.037850 -49.543800   0.000187  -0.000276 -32.996200   0.000611  -0.009895  11.905600  -3.244240  14.973500  47.377500   4.551970  46.889400 -28.608100 -47.909900  84.116500  67.299500 -27.687100  61.170300 -75.794000  44.319400  79.965900   5.571520   0.108387  -0.010515  -2.214230   0.053539   0.057410  -2.977490  -0.377190   7.873120  -0.000068   0.010481   0.002604  -0.557830   0.007515   0.001129  -3.370820  -0.283452   4.823590  -0.000067   0.010396   0.002571  -0.567308   0.007091   0.001126 -15.039200  -0.597102   1.686060  -0.000000   0.004183   0.003703  -0.488187   0.002923   0.002284  -0.413209  -0.046719   2.065630   3.520060  -0.071951  -0.096057   2.344390  -0.050132  -0.063500   3.344410  21.229800   4.720550   1.069210   0.046969   9.285940  -2.146590  -2.758840   2.252290  -0.000000   0.000000   0.000000   3.736110  19.086700  -0.594549  -0.460703   2.786170  -8.955040  -0.578308  -3.181530   1.967010   0.000000   0.000000   0.000000
 -1.791820  89.604400  -1.555070  -5.614250 -19.163400  -7.973710   1.951520  12.417300  -1.094120   4.310080  24.785400  -2.733090   5.294290   6.687360  -0.620770   9.032170  13.220500   3.073470  -4.725890  -3.673620   3.075340 -65.725500  34.476900 -12.909300  -3.138290  -8.561380 -20.113100  16.204000 -11.361800   7.107800  39.193100  33.570200 -57.806400 -33.559000  -0.001196  -0.000687 -11.779500   0.000291  -0.003008 -33.202100   8.115700 -12.173000 -27.874800   0.008648  -0.000915 -19.512400   0.000464  -0.009826 -28.759800   1.191390  -2.168980 -41.657900   0.002983  -0.001704 -27.744200   0.003337  -0.004529 -28.696700   1.188800  -2.170390 -39.448600   0.000044  -0.001744 -26.272800   0.007448  -0.010559 -32.953600   0.688935  -1.062760 -49.440000   0.000162  -0.000298 -32.927100   0.000585  -0.009932  11.924200  -3.107160  15.048800  48.210200   3.914780  47.391100 -28.474500 -46.464300  84.299100  54.682300 -38.243900  52.812100 -75.253000  44.586000  81.832900   6.374140   0.075115  -0.019174  -1.812920   0.036004   0.022438  -8.678880  -1.114560   7.269610  -0.000061   0.008733   0.011974  -1.162740   0.006406   0.006698  -8.162120  -0.658059   4.405380  -0.000060   0.008389   0.011491  -1.151620   0.005869   0.006056 -20.146300  -0.965188   2.646110   0.000010   0.009665   0.012785  -0.380502   0.007296   0.007884  -3.882950  -0.077415   1.886620   0.494346  -0.030316  -0.026816  -0.936995  -0.020224  -0.024344   3.375590  21.262800   4.718950   1.061010   0.018128   9.315530  -2.147470  -2.768020   2.264930   0.000000   0.000000   0.000000   3.772150  19.072500  -0.568969  -0.461703   2.818210  -8.931470  -0.585690  -3.203780   1.967890   0.000000   0.000000   0.000000
